{
	"asset":{
		"generator":"Khronos glTF Blender I/O v4.5.47",
		"version":"2.0"
	},
	"scene":0,
	"scenes":[
		{
			"extras":{
				"wiggle":{
					"is_rendering":0
				},
				"addon_copy_global_transform_mirror_ob":{},
				"addon_copy_global_transform_relative_ob":{},
				"mix_source_armature":{},
				"print3d_toolbox":{
					"use_scene_scale":0
				}
			},
			"name":"Scene",
			"nodes":[
				0
			]
		}
	],
	"nodes":[
		{
			"mesh":0,
			"name":"Character_mesh"
		}
	],
	"materials":[
		{
			"doubleSided":true,
			"name":"Material",
			"pbrMetallicRoughness":{
				"baseColorTexture":{
					"index":0
				},
				"metallicFactor":0,
				"roughnessFactor":0.5
			}
		}
	],
	"meshes":[
		{
			"name":"Cube.007",
			"primitives":[
				{
					"attributes":{
						"POSITION":0,
						"NORMAL":1,
						"TEXCOORD_0":2
					},
					"indices":3,
					"material":0
				}
			]
		}
	],
	"textures":[
		{
			"sampler":0,
			"source":0
		}
	],
	"images":[
		{
			"mimeType":"image/png",
			"name":"BaseColorTexture.png",
			"uri":"../../scenes/character/BaseColorTexture.png"
		}
	],
	"accessors":[
		{
			"bufferView":0,
			"componentType":5126,
			"count":1053,
			"max":[
				0.8639326095581055,
				1.9314295053482056,
				0.4511185586452484
			],
			"min":[
				-0.8639326095581055,
				-0.003562718629837036,
				-0.4762807786464691
			],
			"type":"VEC3"
		},
		{
			"bufferView":1,
			"componentType":5126,
			"count":1053,
			"type":"VEC3"
		},
		{
			"bufferView":2,
			"componentType":5126,
			"count":1053,
			"type":"VEC2"
		},
		{
			"bufferView":3,
			"componentType":5123,
			"count":4371,
			"type":"SCALAR"
		}
	],
	"bufferViews":[
		{
			"buffer":0,
			"byteLength":12636,
			"byteOffset":0,
			"target":34962
		},
		{
			"buffer":0,
			"byteLength":12636,
			"byteOffset":12636,
			"target":34962
		},
		{
			"buffer":0,
			"byteLength":8424,
			"byteOffset":25272,
			"target":34962
		},
		{
			"buffer":0,
			"byteLength":8742,
			"byteOffset":33696,
			"target":34963
		}
	],
	"samplers":[
		{
			"magFilter":9729,
			"minFilter":9987
		}
	],
	"buffers":[
		{
			"byteLength":42440,
			"uri":"character_mesh-dd5b6dbcf3f1e85609a0b03ebcbe23b1.bin"
		}
	]
}
