{
	"asset":{
		"generator":"Khronos glTF Blender I/O v5.0.21",
		"version":"2.0"
	},
	"scene":0,
	"scenes":[
		{
			"extras":{
				"wiggle":{
					"is_rendering":0
				},
				"addon_copy_global_transform_mirror_ob":{},
				"addon_copy_global_transform_relative_ob":{},
				"mix_source_armature":{},
				"print3d_toolbox":{
					"use_scene_scale":0
				}
			},
			"name":"Scene",
			"nodes":[
				0,
				1,
				2
			]
		}
	],
	"nodes":[
		{
			"mesh":0,
			"name":"Crate_Wooden"
		},
		{
			"extras":{
				"booleans":{}
			},
			"mesh":1,
			"name":"Crate_Wooden-particle"
		},
		{
			"mesh":2,
			"name":"Crate_Wooden-particle.001"
		}
	],
	"materials":[
		{
			"doubleSided":true,
			"name":"Material",
			"pbrMetallicRoughness":{
				"baseColorTexture":{
					"index":0
				},
				"metallicFactor":0,
				"roughnessFactor":0.5
			}
		}
	],
	"meshes":[
		{
			"name":"Crate_Wooden",
			"primitives":[
				{
					"attributes":{
						"POSITION":0,
						"NORMAL":1,
						"TEXCOORD_0":2,
						"TANGENT":3
					},
					"indices":4,
					"material":0
				}
			]
		},
		{
			"name":"Crate_Wooden.007",
			"primitives":[
				{
					"attributes":{
						"POSITION":5,
						"NORMAL":6,
						"TEXCOORD_0":7
					},
					"indices":8,
					"material":0
				}
			]
		},
		{
			"name":"Crate_Wooden.009",
			"primitives":[
				{
					"attributes":{
						"POSITION":9,
						"NORMAL":10,
						"TEXCOORD_0":11,
						"TANGENT":12
					},
					"indices":13,
					"material":0
				}
			]
		}
	],
	"textures":[
		{
			"sampler":0,
			"source":0
		}
	],
	"images":[
		{
			"mimeType":"image/png",
			"name":"MasterTexture.png",
			"uri":"../../assets/_master/MasterTexture.png"
		}
	],
	"accessors":[
		{
			"bufferView":0,
			"componentType":5126,
			"count":240,
			"max":[
				0.4964597821235657,
				0.9983430504798889,
				0.498138964176178
			],
			"min":[
				-0.4964597821235657,
				0.0016568303108215332,
				-0.498138964176178
			],
			"type":"VEC3"
		},
		{
			"bufferView":1,
			"componentType":5126,
			"count":240,
			"type":"VEC3"
		},
		{
			"bufferView":2,
			"componentType":5126,
			"count":240,
			"type":"VEC2"
		},
		{
			"bufferView":3,
			"componentType":5126,
			"count":240,
			"type":"VEC4"
		},
		{
			"bufferView":4,
			"componentType":5123,
			"count":540,
			"type":"SCALAR"
		},
		{
			"bufferView":5,
			"componentType":5126,
			"count":95,
			"max":[
				0.34232306480407715,
				0.2636885643005371,
				0.26254183053970337
			],
			"min":[
				-0.3163304328918457,
				0.002402558922767639,
				-0.29608988761901855
			],
			"type":"VEC3"
		},
		{
			"bufferView":6,
			"componentType":5126,
			"count":95,
			"type":"VEC3"
		},
		{
			"bufferView":7,
			"componentType":5126,
			"count":95,
			"type":"VEC2"
		},
		{
			"bufferView":8,
			"componentType":5123,
			"count":168,
			"type":"SCALAR"
		},
		{
			"bufferView":9,
			"componentType":5126,
			"count":24,
			"max":[
				0.397378534078598,
				0.10609221458435059,
				0.06106007471680641
			],
			"min":[
				-0.4074449837207794,
				0.003453850746154785,
				-0.05030810460448265
			],
			"type":"VEC3"
		},
		{
			"bufferView":10,
			"componentType":5126,
			"count":24,
			"type":"VEC3"
		},
		{
			"bufferView":11,
			"componentType":5126,
			"count":24,
			"type":"VEC2"
		},
		{
			"bufferView":12,
			"componentType":5126,
			"count":24,
			"type":"VEC4"
		},
		{
			"bufferView":13,
			"componentType":5123,
			"count":36,
			"type":"SCALAR"
		}
	],
	"bufferViews":[
		{
			"buffer":0,
			"byteLength":2880,
			"byteOffset":0,
			"target":34962
		},
		{
			"buffer":0,
			"byteLength":2880,
			"byteOffset":2880,
			"target":34962
		},
		{
			"buffer":0,
			"byteLength":1920,
			"byteOffset":5760,
			"target":34962
		},
		{
			"buffer":0,
			"byteLength":3840,
			"byteOffset":7680,
			"target":34962
		},
		{
			"buffer":0,
			"byteLength":1080,
			"byteOffset":11520,
			"target":34963
		},
		{
			"buffer":0,
			"byteLength":1140,
			"byteOffset":12600,
			"target":34962
		},
		{
			"buffer":0,
			"byteLength":1140,
			"byteOffset":13740,
			"target":34962
		},
		{
			"buffer":0,
			"byteLength":760,
			"byteOffset":14880,
			"target":34962
		},
		{
			"buffer":0,
			"byteLength":336,
			"byteOffset":15640,
			"target":34963
		},
		{
			"buffer":0,
			"byteLength":288,
			"byteOffset":15976,
			"target":34962
		},
		{
			"buffer":0,
			"byteLength":288,
			"byteOffset":16264,
			"target":34962
		},
		{
			"buffer":0,
			"byteLength":192,
			"byteOffset":16552,
			"target":34962
		},
		{
			"buffer":0,
			"byteLength":384,
			"byteOffset":16744,
			"target":34962
		},
		{
			"buffer":0,
			"byteLength":72,
			"byteOffset":17128,
			"target":34963
		}
	],
	"samplers":[
		{
			"magFilter":9729,
			"minFilter":9987
		}
	],
	"buffers":[
		{
			"byteLength":17200,
			"uri":"environment_props-858e97b266709c80efbbb3ebe25250e8.bin"
		}
	]
}
