{
	"asset":{
		"generator":"Khronos glTF Blender I/O v5.0.21",
		"version":"2.0"
	},
	"scene":0,
	"scenes":[
		{
			"extras":{
				"wiggle":{
					"is_rendering":0
				},
				"addon_copy_global_transform_mirror_ob":{},
				"addon_copy_global_transform_relative_ob":{},
				"mix_source_armature":{},
				"print3d_toolbox":{
					"use_scene_scale":0
				}
			},
			"name":"Scene",
			"nodes":[
				1
			]
		}
	],
	"nodes":[
		{
			"mesh":0,
			"name":"Island-colonly"
		},
		{
			"children":[
				0
			],
			"mesh":1,
			"name":"Island"
		}
	],
	"materials":[
		{
			"doubleSided":true,
			"name":"Material",
			"pbrMetallicRoughness":{
				"baseColorTexture":{
					"index":0
				},
				"metallicFactor":0,
				"roughnessFactor":0.5
			}
		}
	],
	"meshes":[
		{
			"name":"Cube.002",
			"primitives":[
				{
					"attributes":{
						"POSITION":0,
						"NORMAL":1,
						"TEXCOORD_0":2,
						"TANGENT":3
					},
					"indices":4,
					"material":0
				}
			]
		},
		{
			"name":"Cube.001",
			"primitives":[
				{
					"attributes":{
						"POSITION":5,
						"NORMAL":6,
						"TEXCOORD_0":7,
						"TANGENT":8
					},
					"indices":9,
					"material":0
				}
			]
		}
	],
	"textures":[
		{
			"sampler":0,
			"source":0
		}
	],
	"images":[
		{
			"mimeType":"image/png",
			"name":"MasterTexture.png",
			"uri":"../../assets/_master/MasterTexture.png"
		}
	],
	"accessors":[
		{
			"bufferView":0,
			"componentType":5126,
			"count":24,
			"max":[
				23.999996185302734,
				9.999999046325684,
				23.999996185302734
			],
			"min":[
				-23.999996185302734,
				-9.999999046325684,
				-23.999996185302734
			],
			"type":"VEC3"
		},
		{
			"bufferView":1,
			"componentType":5126,
			"count":24,
			"type":"VEC3"
		},
		{
			"bufferView":2,
			"componentType":5126,
			"count":24,
			"type":"VEC2"
		},
		{
			"bufferView":3,
			"componentType":5126,
			"count":24,
			"type":"VEC4"
		},
		{
			"bufferView":4,
			"componentType":5123,
			"count":36,
			"type":"SCALAR"
		},
		{
			"bufferView":5,
			"componentType":5126,
			"count":40,
			"max":[
				23.999996185302734,
				0,
				23.999996185302734
			],
			"min":[
				-23.999996185302734,
				-19.999998092651367,
				-23.999996185302734
			],
			"type":"VEC3"
		},
		{
			"bufferView":6,
			"componentType":5126,
			"count":40,
			"type":"VEC3"
		},
		{
			"bufferView":7,
			"componentType":5126,
			"count":40,
			"type":"VEC2"
		},
		{
			"bufferView":8,
			"componentType":5126,
			"count":40,
			"type":"VEC4"
		},
		{
			"bufferView":9,
			"componentType":5123,
			"count":60,
			"type":"SCALAR"
		}
	],
	"bufferViews":[
		{
			"buffer":0,
			"byteLength":288,
			"byteOffset":0,
			"target":34962
		},
		{
			"buffer":0,
			"byteLength":288,
			"byteOffset":288,
			"target":34962
		},
		{
			"buffer":0,
			"byteLength":192,
			"byteOffset":576,
			"target":34962
		},
		{
			"buffer":0,
			"byteLength":384,
			"byteOffset":768,
			"target":34962
		},
		{
			"buffer":0,
			"byteLength":72,
			"byteOffset":1152,
			"target":34963
		},
		{
			"buffer":0,
			"byteLength":480,
			"byteOffset":1224,
			"target":34962
		},
		{
			"buffer":0,
			"byteLength":480,
			"byteOffset":1704,
			"target":34962
		},
		{
			"buffer":0,
			"byteLength":320,
			"byteOffset":2184,
			"target":34962
		},
		{
			"buffer":0,
			"byteLength":640,
			"byteOffset":2504,
			"target":34962
		},
		{
			"buffer":0,
			"byteLength":120,
			"byteOffset":3144,
			"target":34963
		}
	],
	"samplers":[
		{
			"magFilter":9729,
			"minFilter":9987
		}
	],
	"buffers":[
		{
			"byteLength":3264,
			"uri":"island-9b891c4a816c8a634edcd90dd7023a0b.bin"
		}
	]
}
